# File created by Blade
# Date/Time:  Thu Sep 25 15:55:53 2014
# Frame Rate: 120.000 fps
#------------------------------------------------------
:FULLY-SPECIFIED
:DEGREES
629
root -4.622302 35.076686 -1.471767 70.159234 8.421859 33.332844
Spine -35.580488 -20.124481 0.232978
Head -52.277133 -3.721497 -2.094865
LeftShoulder 2.838467 15.901798 8.267123
LeftArm 42.964569 18.581311 -54.230559
LeftForeArm 22.251904 -0.000000 44.788209
LeftHand -24.314162 -0.000000 6.149949
LeftHandThumb1 -26.253704 0.000000 33.147579
RightShoulder -16.026203 1.425088 -29.015297
RightArm -34.433604 4.339947 55.534329
RightForeArm -16.194619 -0.000000 34.745648
RightHand -1.387535 -0.000000 0.769765
RightHandThumb1 -24.326973 -0.000000 -32.862282
LeftUpLeg 34.519929 -8.698288 30.047431
LeftLeg 29.466907 -0.000000 -0.000000
LeftFoot 43.686338 24.574586 -2.308771
LeftToeBase 20.083711 -0.000000 -0.000000
RightUpLeg -73.049503 -30.784150 0.185869
RightLeg 8.207395 -0.000000 -0.000000
RightFoot -2.384566 -3.651913 -4.663102
RightToeBase -4.323969 -0.000000 0.000000
630
root -4.586359 35.102133 -1.460406 70.258006 7.926590 33.317620
Spine -35.833905 -20.092390 -0.045985
Head -52.350793 -3.450623 -2.149663
LeftShoulder 2.618743 16.387196 8.232812
LeftArm 42.844470 19.104470 -53.038486
LeftForeArm 22.035285 -0.000000 44.311057
LeftHand -24.296607 -0.000000 5.822787
LeftHandThumb1 -26.253704 0.000000 33.147579
RightShoulder -16.251266 1.382654 -28.920869
RightArm -34.712593 4.801605 55.638172
RightForeArm -16.432537 -0.000000 35.085882
RightHand -1.540371 0.000000 0.922662
RightHandThumb1 -24.326973 -0.000000 -32.862282
LeftUpLeg 35.148130 -9.435210 28.812281
LeftLeg 30.204255 -0.000000 -0.000000
LeftFoot 43.972791 24.595021 -2.757576
LeftToeBase 20.331896 -0.000000 -0.000000
RightUpLeg -72.923139 -30.829723 0.186342
RightLeg 7.233857 -0.000000 -0.000000
RightFoot -1.942449 -3.121391 -4.360870
RightToeBase -4.087674 -0.000000 0.000000
631
root -4.553060 35.121752 -1.443148 70.359133 7.505157 33.313254
Spine -36.082613 -20.068341 -0.223715
Head -52.416679 -3.147689 -2.314929
LeftShoulder 2.493853 16.814406 8.257566
LeftArm 42.600473 19.650455 -52.037076
LeftForeArm 21.782672 -0.000000 43.742278
LeftHand -24.320130 -0.000000 5.931207
LeftHandThumb1 -26.253704 0.000000 33.147579
RightShoulder -16.412922 1.371290 -28.918193
RightArm -34.885828 5.261857 55.818433
RightForeArm -16.473908 -0.000000 35.189490
RightHand -1.470905 0.000000 0.325360
RightHandThumb1 -24.326973 -0.000000 -32.862282
LeftUpLeg 35.526697 -9.895418 27.719892
LeftLeg 30.912359 -0.000000 -0.000000
LeftFoot 44.230422 24.599783 -3.165878
LeftToeBase 20.509453 -0.000000 -0.000000
RightUpLeg -72.762808 -30.888320 0.147126
RightLeg 6.320705 -0.000000 -0.000000
RightFoot -1.527760 -2.589576 -4.095927
RightToeBase -3.839870 -0.000000 0.000000
632
root -4.531211 35.135292 -1.420452 70.424317 7.186914 33.263739
Spine -36.275638 -20.061811 -0.232068
Head -52.546663 -2.802543 -2.574932
LeftShoulder 2.351708 17.141548 8.208066
LeftArm 42.264723 20.264104 -50.905337
LeftForeArm 21.264611 -0.000000 43.116480
LeftHand -24.297001 0.000000 5.914049
LeftHandThumb1 -26.253704 0.000000 33.147579
RightShoulder -16.417809 1.405330 -28.934378
RightArm -35.031752 5.776068 56.027704
RightForeArm -16.379587 0.000000 35.200893
RightHand -1.420914 -0.000000 0.067678
RightHandThumb1 -24.326973 -0.000000 -32.862282
LeftUpLeg 35.669271 -10.045664 26.913746
LeftLeg 31.643337 -0.000000 -0.000000
LeftFoot 44.375774 24.558401 -3.850469
LeftToeBase 20.285804 -0.000000 -0.000000
RightUpLeg -72.570705 -30.907774 0.113816
RightLeg 5.540935 -0.000000 -0.000000
RightFoot -1.177293 -2.089920 -3.755456
RightToeBase -3.629236 -0.000000 0.000000
633
root -4.520560 35.142625 -1.390244 70.488094 6.965422 33.201830
Spine -36.411715 -19.998591 -0.225556
Head -52.757357 -2.512714 -2.811591
LeftShoulder 2.350292 17.537384 8.249310
LeftArm 41.996107 20.764711 -49.918032
LeftForeArm 20.785404 -0.000000 42.286042
LeftHand -24.218773 -0.000000 5.815531
LeftHandThumb1 -26.253704 0.000000 33.147579
RightShoulder -16.516122 1.357680 -28.933971
RightArm -34.927018 6.113237 56.374034
RightForeArm -16.155753 -0.000000 34.950657
RightHand -1.499154 -0.000000 -1.126249
RightHandThumb1 -24.326973 -0.000000 -32.862282
LeftUpLeg 35.568461 -9.912682 26.395415
LeftLeg 32.278835 -0.000000 -0.000000
LeftFoot 44.509892 24.391286 -4.463046
LeftToeBase 20.140836 -0.000000 -0.000000
RightUpLeg -72.445055 -30.929781 0.166614
RightLeg 4.956414 -0.000000 -0.000000
RightFoot -0.976376 -1.525833 -3.304527
RightToeBase -3.363244 -0.000000 0.000000
634
root -4.520734 35.141175 -1.351444 70.456200 6.914579 33.107606
Spine -36.415722 -19.928924 0.053305
Head -53.117344 -2.323054 -3.252905
LeftShoulder 2.278759 17.925236 8.079168
LeftArm 41.794532 21.221665 -48.843283
LeftForeArm 19.984911 0.000000 41.274140
LeftHand -24.145918 -0.000000 5.742311
LeftHandThumb1 -26.253704 0.000000 33.147579
RightShoulder -16.666753 1.358678 -29.061943
RightArm -34.596054 6.306695 56.849088
RightForeArm -15.844197 -0.000000 34.571810
RightHand -1.498444 0.000000 -1.767314
RightHandThumb1 -24.326973 -0.000000 -32.862282
LeftUpLeg 35.296235 -9.499319 26.315436
LeftLeg 32.840000 -0.000000 -0.000000
LeftFoot 44.721701 23.402385 -3.814606
LeftToeBase 21.568591 -0.000000 -0.000000
RightUpLeg -72.366203 -30.998464 0.440865
RightLeg 4.649860 -0.000000 -0.000000
RightFoot -0.853659 -0.894521 -3.118191
RightToeBase -3.551222 -0.000000 0.000000
635
root -4.516795 35.140722 -1.315711 70.475278 6.862382 33.073304
Spine -36.406615 -19.964978 0.234585
Head -53.492798 -1.989224 -3.354408
LeftShoulder 2.300564 18.195601 8.168216
LeftArm 41.430823 21.707593 -48.123405
LeftForeArm 19.316970 -0.000000 40.176764
LeftHand -23.801347 -0.000000 5.595687
LeftHandThumb1 -26.253704 0.000000 33.147579
RightShoulder -16.447689 1.763127 -29.136325
RightArm -34.741351 6.777850 57.022695
RightForeArm -15.656910 -0.000000 33.977729
RightHand -1.262602 -0.000000 -1.483122
RightHandThumb1 -24.326973 -0.000000 -32.862282
LeftUpLeg 34.749908 -8.771752 26.408093
LeftLeg 33.368945 -0.000000 -0.000000
LeftFoot 44.775369 23.342070 -4.554400
LeftToeBase 20.687014 -0.000000 -0.000000
RightUpLeg -72.159898 -30.980565 0.275199
RightLeg 4.450402 -0.000000 -0.000000
RightFoot -0.799968 -0.715775 -3.000876
RightToeBase -3.586266 -0.000000 0.000000
636
root -4.525693 35.136647 -1.273232 70.455095 6.949514 33.035217
Spine -36.314168 -19.943370 0.537449
Head -53.929972 -1.832452 -3.578747
LeftShoulder 2.389462 18.521743 8.125388
LeftArm 41.139217 22.102761 -47.347286
LeftForeArm 18.601258 -0.000000 39.008307
LeftHand -23.725895 -0.000000 5.351568
LeftHandThumb1 -26.253704 0.000000 33.147579
RightShoulder -16.345251 1.920060 -29.102838
RightArm -34.550619 7.043361 57.314057
RightForeArm -15.456332 -0.000000 33.477039
RightHand -1.103056 0.000000 -1.608523
RightHandThumb1 -24.326973 -0.000000 -32.862282
LeftUpLeg 34.040025 -7.823367 26.796788
LeftLeg 33.814214 -0.000000 -0.000000
LeftFoot 44.762069 23.298340 -5.181361
LeftToeBase 19.821940 -0.000000 -0.000000
RightUpLeg -72.057085 -31.014646 0.300261
RightLeg 4.519723 -0.000000 -0.000000
RightFoot -0.887336 -0.452949 -2.868322
RightToeBase -3.736104 -0.000000 0.000000
637
root -4.529609 35.124783 -1.220100 70.321561 7.160682 32.825797
Spine -36.118646 -19.759340 1.109704
Head -54.450690 -1.660322 -3.990161
LeftShoulder 2.449141 18.871736 7.960918
LeftArm 40.945612 22.442765 -46.660171
LeftForeArm 17.687504 -0.000000 37.638839
LeftHand -23.695005 -0.000000 5.184971
LeftHandThumb1 -26.253704 0.000000 33.147579
RightShoulder -16.180237 2.158942 -29.119824
RightArm -34.305209 7.295187 57.503702
RightForeArm -14.978005 -0.000000 33.026083
RightHand -1.011246 0.000000 -0.891231
RightHandThumb1 -24.326973 -0.000000 -32.862282
LeftUpLeg 33.396637 -6.636401 27.360331
LeftLeg 34.052706 -0.000000 -0.000000
LeftFoot 44.976139 22.766143 -4.975672
LeftToeBase 19.818606 -0.000000 -0.000000
RightUpLeg -71.905071 -30.924303 0.463195
RightLeg 4.737756 -0.000000 -0.000000
RightFoot -1.012485 -0.176003 -2.984944
RightToeBase -4.176952 -0.000000 0.000000
